<svg width="100" height="100" viewBox="0 0 100 100" fill="none" xmlns="http://www.w3.org/2000/svg">
<path fill-rule="evenodd" clip-rule="evenodd" d="M40.4196 30.452C40.5523 30.3087 40.7099 30.195 40.8834 30.1175C41.0569 30.0399 41.2429 30 41.4308 30C41.6186 30 41.8046 30.0399 41.9781 30.1175C42.1517 30.195 42.3093 30.3087 42.4419 30.452L59.5804 48.9113C59.7134 49.0542 59.8189 49.224 59.8909 49.4109C59.9629 49.5977 60 49.7981 60 50.0004C60 50.2028 59.9629 50.4031 59.8909 50.59C59.8189 50.7769 59.7134 50.9466 59.5804 51.0895L42.4419 69.5489C42.1738 69.8378 41.81 70 41.4308 70C41.0515 70 40.6878 69.8378 40.4196 69.5489C40.1514 69.2601 40.0007 68.8683 40.0007 68.4598C40.0007 68.0513 40.1514 67.6595 40.4196 67.3707L56.5498 50.0004L40.4196 32.6302C40.2866 32.4873 40.1811 32.3175 40.1091 32.1306C40.0371 31.9437 40 31.7434 40 31.5411C40 31.3387 40.0371 31.1384 40.1091 30.9515C40.1811 30.7646 40.2866 30.5949 40.4196 30.452Z" fill="black"/>
</svg>
