<svg width="100" height="100" viewBox="0 0 100 100" fill="none" xmlns="http://www.w3.org/2000/svg">
<path fill-rule="evenodd" clip-rule="evenodd" d="M59.5804 30.452C59.7134 30.5949 59.8189 30.7646 59.8909 30.9515C59.9629 31.1384 60 31.3387 60 31.5411C60 31.7434 59.9629 31.9437 59.8909 32.1306C59.8189 32.3175 59.7134 32.4873 59.5804 32.6302L43.4502 50.0004L59.5804 67.3707C59.8486 67.6595 59.9993 68.0513 59.9993 68.4598C59.9993 68.8683 59.8486 69.2601 59.5804 69.5489C59.3122 69.8378 58.9485 70 58.5692 70C58.19 70 57.8263 69.8378 57.5581 69.5489L40.4196 51.0895C40.2866 50.9466 40.1811 50.7769 40.1091 50.59C40.0371 50.4031 40 50.2028 40 50.0004C40 49.7981 40.0371 49.5977 40.1091 49.4109C40.1811 49.224 40.2866 49.0542 40.4196 48.9113L57.5581 30.452C57.6907 30.3087 57.8483 30.195 58.0219 30.1175C58.1954 30.0399 58.3814 30 58.5692 30C58.7571 30 58.9431 30.0399 59.1166 30.1175C59.2901 30.195 59.4477 30.3087 59.5804 30.452Z" fill="black"/>
</svg>
